<?xml version="1.0" encoding="utf-8"?>
<!-- Generator: Adobe Illustrator 24.0.3, SVG Export Plug-In . SVG Version: 6.00 Build 0)  -->
<svg version="1.1" id="Icons" xmlns="http://www.w3.org/2000/svg" xmlns:xlink="http://www.w3.org/1999/xlink" x="0px" y="0px"
	 viewBox="0 0 28.3 28.3" style="enable-background:new 0 0 28.3 28.3;" xml:space="preserve">
<style type="text/css">
	.st0{fill:#FFFFFF;}
</style>
<g>
	<path class="st0" d="M22.5,27c0.3,0,0.5-0.2,0.5-0.5c0-0.3-0.2-0.5-0.5-0.5H5c-0.3,0-0.5,0.2-0.5,0.5C4.5,26.7,4.7,27,5,27H22.5z"
		/>
	<path class="st0" d="M25.9,23.8h-3.3v-6.6c0-0.2-0.1-0.4-0.3-0.5L17.1,14V2.2c0-0.2-0.1-0.3-0.2-0.4c-0.2-0.1-0.3-0.1-0.5,0
		l-5.6,2.8c-0.2,0.1-0.3,0.3-0.3,0.5V10l-5.3,2.7C5,12.8,4.9,13,4.9,13.2v10.6H1.6c-0.3,0-0.5,0.2-0.5,0.5c0,0.3,0.2,0.5,0.5,0.5
		h24.3c0.3,0,0.5-0.2,0.5-0.5C26.4,24,26.2,23.8,25.9,23.8z M10.5,23.8H5.9V13.5l4.5-2.3V23.8z M16,14.3C16,14.3,16,14.3,16,14.3
		v9.5h-4.5V10.4V5.3L16,3V14.3z M21.6,23.8h-4.5v-8.6l4.5,2.3V23.8z"/>
	<path class="st0" d="M18.5,23c0.2,0,0.4-0.2,0.4-0.4V17c0-0.2-0.2-0.4-0.4-0.4s-0.4,0.2-0.4,0.4v5.6C18.1,22.9,18.3,23,18.5,23z"/>
	<path class="st0" d="M20.2,23c0.2,0,0.4-0.2,0.4-0.4v-4c0-0.2-0.2-0.4-0.4-0.4s-0.4,0.2-0.4,0.4v4C19.8,22.9,20,23,20.2,23z"/>
	<path class="st0" d="M9,23c0.2,0,0.4-0.2,0.4-0.4v-9.4c0-0.2-0.2-0.4-0.4-0.4c-0.2,0-0.4,0.2-0.4,0.4v9.4C8.7,22.9,8.8,23,9,23z"/>
	<path class="st0" d="M7.3,23c0.2,0,0.4-0.2,0.4-0.4v-7.8c0-0.2-0.2-0.4-0.4-0.4c-0.2,0-0.4,0.2-0.4,0.4v7.8C6.9,22.9,7.1,23,7.3,23
		z"/>
	<path class="st0" d="M14.7,23c0.2,0,0.4-0.2,0.4-0.4V5.1c0-0.2-0.2-0.4-0.4-0.4c-0.2,0-0.4,0.2-0.4,0.4v17.5
		C14.3,22.9,14.5,23,14.7,23z"/>
	<path class="st0" d="M12.8,23c0.2,0,0.4-0.2,0.4-0.4V6.9c0-0.2-0.2-0.4-0.4-0.4c-0.2,0-0.4,0.2-0.4,0.4v15.8
		C12.4,22.9,12.6,23,12.8,23z"/>
</g>
</svg>
